G04 DipTrace 3.0.0.2*
G04 82S100replacement.GBL*
%MOMM*%
G04 #@! TF.FileFunction,Copper,L2,Bot*
G04 #@! TF.Part,Single*
G04 #@! TA.AperFunction,Conductor*
%ADD13C,0.33*%
%ADD14C,0.6*%
G04 #@! TA.AperFunction,CopperBalancing*
%ADD16C,0.635*%
G04 #@! TA.AperFunction,ComponentPad*
%ADD17R,1.5X1.5*%
%ADD18C,1.5*%
%ADD22C,1.5*%
%ADD23R,1.3X1.5*%
G04 #@! TA.AperFunction,ViaPad*
%ADD24C,1.016*%
%FSLAX35Y35*%
G04*
G71*
G90*
G75*
G01*
G04 Bottom*
%LPD*%
X1618050Y3237300D2*
D13*
X1685800D1*
X1858550Y3064550D1*
X1794550Y2747050D2*
Y3000550D1*
X1858550Y3064550D1*
X1921550Y3413800D2*
X1905673D1*
X1858050Y3366177D1*
Y3065050D1*
X1858550Y3064550D1*
X2334300Y2921677D2*
Y1572300D1*
X1985050Y1223050D1*
X1508800Y3413800D2*
Y3128050D1*
X1619923Y3016927D1*
Y1238923D1*
X1604050Y1223050D1*
X2191423Y3397300D2*
Y1619923D1*
X1794550Y1223050D1*
X1508800Y3001050D2*
Y1318300D1*
X1413550Y1223050D1*
X2064423Y2921673D2*
D14*
Y3048677D1*
D13*
X2048550Y3064550D1*
Y3223300D2*
D14*
Y3064550D1*
Y3223300D2*
Y3937673D1*
X2683550Y4572673D1*
D24*
X1618050Y3237300D3*
X1794550Y2747050D3*
X1921550Y3413800D3*
X2334300Y2921677D3*
X1508800Y3413800D3*
X2191423Y3397300D3*
X1508800Y3001050D3*
X2064423Y2921673D3*
X2048550Y3223300D3*
D3*
X1308217Y4652383D2*
D16*
X2559317D1*
X1308217Y4589217D2*
X2535877D1*
X1308217Y4526050D2*
X2493087D1*
X1308217Y4462883D2*
X2429837D1*
X1282917Y4399717D2*
X2366707D1*
X1307100Y4336550D2*
X2303580D1*
X1300777Y4273383D2*
X2240327D1*
X1257987Y4210217D2*
X2177200D1*
X2464983D2*
X2585113D1*
X1281923Y4147050D2*
X2114070D1*
X2401857D2*
X2561177D1*
X1306853Y4083883D2*
X2050820D1*
X2338603D2*
X2536247D1*
X1301270Y4020717D2*
X1987693D1*
X2275477D2*
X2541830D1*
X1259600Y3957550D2*
X1947013D1*
X2212347D2*
X2583500D1*
X1280933Y3894383D2*
X1944903D1*
X2152197D2*
X2562167D1*
X1306730Y3831217D2*
X1944903D1*
X2152197D2*
X2536370D1*
X1301643Y3768050D2*
X1944903D1*
X2152197D2*
X2541457D1*
X1261087Y3704883D2*
X1944903D1*
X2152197D2*
X2582013D1*
X1279940Y3641717D2*
X1944903D1*
X2152197D2*
X2563160D1*
X1306480Y3578550D2*
X1944903D1*
X2152197D2*
X2536620D1*
X1302017Y3515383D2*
X1442237D1*
X1575363D2*
X1944903D1*
X2152197D2*
X2541083D1*
X1262577Y3452217D2*
X1390767D1*
X1626833D2*
X1944903D1*
X2302263D2*
X2580523D1*
X1278947Y3389050D2*
X1386923D1*
X1630677D2*
X1944903D1*
X2315537D2*
X2564153D1*
X1306233Y3325883D2*
X1418673D1*
X1598927D2*
X1944903D1*
X2291847D2*
X2536867D1*
X1302513Y3262717D2*
X1418673D1*
X1598927D2*
X1930890D1*
X2281553D2*
X2540587D1*
X1263940Y3199550D2*
X1418673D1*
X1598927D2*
X1909930D1*
X2281553D2*
X2579160D1*
X1277957Y3136383D2*
X1418673D1*
X1625220D2*
X1909930D1*
X2281553D2*
X2565143D1*
X1306110Y3073217D2*
X1409000D1*
X1688350D2*
X1909930D1*
X2281553D2*
X2536990D1*
X1302883Y3010050D2*
X1384690D1*
X1710053D2*
X1909930D1*
X2418970D2*
X2540217D1*
X1265303Y2946883D2*
X1397463D1*
X1710053D2*
X1909930D1*
X2456053D2*
X2577797D1*
X1276840Y2883717D2*
X1418673D1*
X1710053D2*
X1946267D1*
X2452457D2*
X2566260D1*
X1305860Y2820550D2*
X1418673D1*
X1710053D2*
X1997117D1*
X2424427D2*
X2537240D1*
X1303257Y2757383D2*
X1418673D1*
X1710053D2*
X2101297D1*
X2424427D2*
X2539843D1*
X1266670Y2694217D2*
X1418673D1*
X1710053D2*
X2101297D1*
X2424427D2*
X2576430D1*
X1275847Y2631050D2*
X1418673D1*
X1710053D2*
X2101297D1*
X2424427D2*
X2567253D1*
X1305613Y2567883D2*
X1418673D1*
X1710053D2*
X2101297D1*
X2424427D2*
X2537487D1*
X1303627Y2504717D2*
X1418673D1*
X1710053D2*
X2101297D1*
X2424427D2*
X2539473D1*
X1268033Y2441550D2*
X1418673D1*
X1710053D2*
X2101297D1*
X2424427D2*
X2575067D1*
X1274730Y2378383D2*
X1418673D1*
X1710053D2*
X2101297D1*
X2424427D2*
X2568370D1*
X1305240Y2315217D2*
X1418673D1*
X1710053D2*
X2101297D1*
X2424427D2*
X2537860D1*
X1303877Y2252050D2*
X1418673D1*
X1710053D2*
X2101297D1*
X2424427D2*
X2539223D1*
X1269273Y2188883D2*
X1418673D1*
X1710053D2*
X2101297D1*
X2424427D2*
X2573827D1*
X1273613Y2125717D2*
X1418673D1*
X1710053D2*
X2101297D1*
X2424427D2*
X2569487D1*
X1304993Y2062550D2*
X1418673D1*
X1710053D2*
X2101297D1*
X2424427D2*
X2538107D1*
X1304247Y1999383D2*
X1418673D1*
X1710053D2*
X2101297D1*
X2424427D2*
X2538853D1*
X1270513Y1936217D2*
X1418673D1*
X1710053D2*
X2101297D1*
X2424427D2*
X2572587D1*
X1272373Y1873050D2*
X1418673D1*
X1710053D2*
X2101297D1*
X2424427D2*
X2570727D1*
X1304743Y1809883D2*
X1418673D1*
X1710053D2*
X2101297D1*
X2424427D2*
X2538357D1*
X1304497Y1746717D2*
X1418673D1*
X1710053D2*
X2101297D1*
X2424427D2*
X2538603D1*
X1271753Y1683550D2*
X1418673D1*
X1710053D2*
X2101297D1*
X2424427D2*
X2571347D1*
X1271133Y1620383D2*
X1418673D1*
X1710053D2*
X2067067D1*
X2424427D2*
X2571967D1*
X1304373Y1557217D2*
X1418673D1*
X1710053D2*
X2003940D1*
X2423063D2*
X2538727D1*
X1304867Y1494050D2*
X1418673D1*
X1710053D2*
X1940810D1*
X2380897D2*
X2538233D1*
X1272870Y1430883D2*
X1418673D1*
X1710053D2*
X1877560D1*
X2317643D2*
X2570230D1*
X1134150Y1367717D2*
X1418673D1*
X1710053D2*
X1814430D1*
X2254517D2*
X2573083D1*
X1134150Y1304550D2*
X1290557D1*
X2191387D2*
X2243057D1*
X2489043D2*
X2538977D1*
X1134150Y1241383D2*
X1266123D1*
X2132477D2*
X2218623D1*
X1134150Y1178217D2*
X1272200D1*
X2126400D2*
X2224700D1*
X2507400D2*
X2568990D1*
X1127763Y4714963D2*
X1301840D1*
Y4430383D1*
X1247643D1*
X1260163Y4419287D1*
X1274667Y4402310D1*
X1286330Y4383270D1*
X1294877Y4362643D1*
X1300087Y4340933D1*
X1301840Y4318673D1*
X1300087Y4296413D1*
X1294877Y4274703D1*
X1286330Y4254077D1*
X1274667Y4235037D1*
X1260163Y4218060D1*
X1243187Y4203557D1*
X1223713Y4191690D1*
X1243187Y4179790D1*
X1260163Y4165287D1*
X1274667Y4148310D1*
X1286330Y4129270D1*
X1294877Y4108643D1*
X1300087Y4086933D1*
X1301840Y4064673D1*
X1300087Y4042413D1*
X1294877Y4020703D1*
X1286330Y4000077D1*
X1274667Y3981037D1*
X1260163Y3964060D1*
X1243187Y3949557D1*
X1223713Y3937690D1*
X1243187Y3925790D1*
X1260163Y3911287D1*
X1274667Y3894310D1*
X1286330Y3875270D1*
X1294877Y3854643D1*
X1300087Y3832933D1*
X1301840Y3810673D1*
X1300087Y3788413D1*
X1294877Y3766703D1*
X1286330Y3746077D1*
X1274667Y3727037D1*
X1260163Y3710060D1*
X1243187Y3695557D1*
X1223713Y3683690D1*
X1243187Y3671790D1*
X1260163Y3657287D1*
X1274667Y3640310D1*
X1286330Y3621270D1*
X1294877Y3600643D1*
X1300087Y3578933D1*
X1301840Y3556673D1*
X1300087Y3534413D1*
X1294877Y3512703D1*
X1286330Y3492077D1*
X1274667Y3473037D1*
X1260163Y3456060D1*
X1243187Y3441557D1*
X1223713Y3429690D1*
X1243187Y3417790D1*
X1260163Y3403287D1*
X1274667Y3386310D1*
X1286330Y3367270D1*
X1294877Y3346643D1*
X1300087Y3324933D1*
X1301840Y3302673D1*
X1300087Y3280413D1*
X1294877Y3258703D1*
X1286330Y3238077D1*
X1274667Y3219037D1*
X1260163Y3202060D1*
X1243187Y3187557D1*
X1223713Y3175690D1*
X1243187Y3163790D1*
X1260163Y3149287D1*
X1274667Y3132310D1*
X1286330Y3113270D1*
X1294877Y3092643D1*
X1300087Y3070933D1*
X1301840Y3048673D1*
X1300087Y3026413D1*
X1294877Y3004703D1*
X1286330Y2984077D1*
X1274667Y2965037D1*
X1260163Y2948060D1*
X1243187Y2933557D1*
X1223713Y2921690D1*
X1243187Y2909790D1*
X1260163Y2895287D1*
X1274667Y2878310D1*
X1286330Y2859270D1*
X1294877Y2838643D1*
X1300087Y2816933D1*
X1301840Y2794673D1*
X1300087Y2772413D1*
X1294877Y2750703D1*
X1286330Y2730077D1*
X1274667Y2711037D1*
X1260163Y2694060D1*
X1243187Y2679557D1*
X1223713Y2667690D1*
X1243187Y2655790D1*
X1260163Y2641287D1*
X1274667Y2624310D1*
X1286330Y2605270D1*
X1294877Y2584643D1*
X1300087Y2562933D1*
X1301840Y2540673D1*
X1300087Y2518413D1*
X1294877Y2496703D1*
X1286330Y2476077D1*
X1274667Y2457037D1*
X1260163Y2440060D1*
X1243187Y2425557D1*
X1223713Y2413690D1*
X1243187Y2401790D1*
X1260163Y2387287D1*
X1274667Y2370310D1*
X1286330Y2351270D1*
X1294877Y2330643D1*
X1300087Y2308933D1*
X1301840Y2286673D1*
X1300087Y2264413D1*
X1294877Y2242703D1*
X1286330Y2222077D1*
X1274667Y2203037D1*
X1260163Y2186060D1*
X1243187Y2171557D1*
X1223713Y2159690D1*
X1243187Y2147790D1*
X1260163Y2133287D1*
X1274667Y2116310D1*
X1286330Y2097270D1*
X1294877Y2076643D1*
X1300087Y2054933D1*
X1301840Y2032673D1*
X1300087Y2010413D1*
X1294877Y1988703D1*
X1286330Y1968077D1*
X1274667Y1949037D1*
X1260163Y1932060D1*
X1243187Y1917557D1*
X1223713Y1905690D1*
X1243187Y1893790D1*
X1260163Y1879287D1*
X1274667Y1862310D1*
X1286330Y1843270D1*
X1294877Y1822643D1*
X1300087Y1800933D1*
X1301840Y1778673D1*
X1300087Y1756413D1*
X1294877Y1734703D1*
X1286330Y1714077D1*
X1274667Y1695037D1*
X1260163Y1678060D1*
X1243187Y1663557D1*
X1223713Y1651690D1*
X1243187Y1639790D1*
X1260163Y1625287D1*
X1274667Y1608310D1*
X1286330Y1589270D1*
X1294877Y1568643D1*
X1300087Y1546933D1*
X1301840Y1524673D1*
X1300087Y1502413D1*
X1294877Y1480703D1*
X1286330Y1460077D1*
X1274667Y1441037D1*
X1260163Y1424060D1*
X1243187Y1409557D1*
X1224147Y1397893D1*
X1203520Y1389347D1*
X1181810Y1384137D1*
X1159550Y1382383D1*
X1137290Y1384137D1*
X1127747Y1386033D1*
X1127800Y1127800D1*
X1307757D1*
X1292227Y1148703D1*
X1282090Y1168597D1*
X1275190Y1189833D1*
X1271700Y1211887D1*
Y1234213D1*
X1275190Y1256267D1*
X1282090Y1277503D1*
X1292227Y1297397D1*
X1305353Y1315460D1*
X1321140Y1331247D1*
X1339203Y1344373D1*
X1359097Y1354510D1*
X1380333Y1361410D1*
X1402387Y1364900D1*
X1425017Y1364867D1*
X1425010Y2917830D1*
X1413263Y2931640D1*
X1403580Y2947437D1*
X1396490Y2964557D1*
X1392163Y2982577D1*
X1390710Y3001050D1*
X1392163Y3019523D1*
X1396490Y3037543D1*
X1403580Y3054663D1*
X1413263Y3070460D1*
X1425297Y3084553D1*
X1433273Y3091767D1*
X1427323Y3108490D1*
X1425010Y3128050D1*
Y3330580D1*
X1413263Y3344390D1*
X1403580Y3360187D1*
X1396490Y3377307D1*
X1392163Y3395327D1*
X1390710Y3413800D1*
X1392163Y3432273D1*
X1396490Y3450293D1*
X1403580Y3467413D1*
X1413263Y3483210D1*
X1425297Y3497303D1*
X1439390Y3509337D1*
X1455187Y3519020D1*
X1472307Y3526110D1*
X1490327Y3530437D1*
X1508800Y3531890D1*
X1527273Y3530437D1*
X1545293Y3526110D1*
X1562413Y3519020D1*
X1578210Y3509337D1*
X1592303Y3497303D1*
X1604337Y3483210D1*
X1614020Y3467413D1*
X1621110Y3450293D1*
X1625437Y3432273D1*
X1626890Y3413800D1*
X1625437Y3395327D1*
X1621110Y3377307D1*
X1614020Y3360187D1*
X1604337Y3344390D1*
X1592573Y3330590D1*
X1592590Y3162653D1*
X1683637Y3071343D1*
X1694580Y3054967D1*
X1701400Y3036487D1*
X1703713Y3016927D1*
X1703680Y3016080D1*
X1703713Y1332563D1*
X1720203Y1344373D1*
X1740097Y1354510D1*
X1761333Y1361410D1*
X1783387Y1364900D1*
X1805713D1*
X1816680Y1363603D1*
X2107753Y1654750D1*
X2107633Y2811663D1*
X2091990Y2806847D1*
X2073690Y2803947D1*
X2055157D1*
X2036857Y2806847D1*
X2019233Y2812573D1*
X2002720Y2820987D1*
X1987730Y2831877D1*
X1974627Y2844980D1*
X1963737Y2859970D1*
X1955323Y2876483D1*
X1949597Y2894107D1*
X1946697Y2912407D1*
X1946357Y2922290D1*
X1916260Y2922260D1*
Y3206840D1*
X1931513D1*
X1930460Y3223300D1*
X1931913Y3241773D1*
X1936240Y3259793D1*
X1943330Y3276913D1*
X1951303Y3290153D1*
X1951560Y3945307D1*
X1953947Y3960387D1*
X1958667Y3974903D1*
X1965597Y3988507D1*
X1974570Y4000857D1*
X2114460Y4141173D1*
X2541283Y4567997D1*
X2543013Y4594933D1*
X2548223Y4616643D1*
X2556770Y4637270D1*
X2568433Y4656310D1*
X2582937Y4673287D1*
X2599913Y4687790D1*
X2618953Y4699453D1*
X2639580Y4708000D1*
X2661290Y4713210D1*
X2683550Y4714963D1*
X2705810Y4713210D1*
X2715610Y4711263D1*
X2715300Y4715550D1*
X1127800Y4714930D1*
X2746683Y1143217D2*
X2727520Y1135347D1*
X2705810Y1130137D1*
X2683550Y1128383D1*
X2661290Y1130137D1*
X2639580Y1135347D1*
X2618953Y1143893D1*
X2599913Y1155557D1*
X2582937Y1170060D1*
X2568433Y1187037D1*
X2556770Y1206077D1*
X2548223Y1226703D1*
X2543013Y1248413D1*
X2541260Y1270673D1*
X2543013Y1292933D1*
X2548223Y1314643D1*
X2556770Y1335270D1*
X2568433Y1354310D1*
X2582937Y1371287D1*
X2599913Y1385790D1*
X2619387Y1397657D1*
X2599913Y1409557D1*
X2582937Y1424060D1*
X2568433Y1441037D1*
X2556770Y1460077D1*
X2548223Y1480703D1*
X2543013Y1502413D1*
X2541260Y1524673D1*
X2543013Y1546933D1*
X2548223Y1568643D1*
X2556770Y1589270D1*
X2568433Y1608310D1*
X2582937Y1625287D1*
X2599913Y1639790D1*
X2619387Y1651657D1*
X2599913Y1663557D1*
X2582937Y1678060D1*
X2568433Y1695037D1*
X2556770Y1714077D1*
X2548223Y1734703D1*
X2543013Y1756413D1*
X2541260Y1778673D1*
X2543013Y1800933D1*
X2548223Y1822643D1*
X2556770Y1843270D1*
X2568433Y1862310D1*
X2582937Y1879287D1*
X2599913Y1893790D1*
X2619387Y1905657D1*
X2599913Y1917557D1*
X2582937Y1932060D1*
X2568433Y1949037D1*
X2556770Y1968077D1*
X2548223Y1988703D1*
X2543013Y2010413D1*
X2541260Y2032673D1*
X2543013Y2054933D1*
X2548223Y2076643D1*
X2556770Y2097270D1*
X2568433Y2116310D1*
X2582937Y2133287D1*
X2599913Y2147790D1*
X2619387Y2159657D1*
X2599913Y2171557D1*
X2582937Y2186060D1*
X2568433Y2203037D1*
X2556770Y2222077D1*
X2548223Y2242703D1*
X2543013Y2264413D1*
X2541260Y2286673D1*
X2543013Y2308933D1*
X2548223Y2330643D1*
X2556770Y2351270D1*
X2568433Y2370310D1*
X2582937Y2387287D1*
X2599913Y2401790D1*
X2619387Y2413657D1*
X2599913Y2425557D1*
X2582937Y2440060D1*
X2568433Y2457037D1*
X2556770Y2476077D1*
X2548223Y2496703D1*
X2543013Y2518413D1*
X2541260Y2540673D1*
X2543013Y2562933D1*
X2548223Y2584643D1*
X2556770Y2605270D1*
X2568433Y2624310D1*
X2582937Y2641287D1*
X2599913Y2655790D1*
X2619387Y2667657D1*
X2599913Y2679557D1*
X2582937Y2694060D1*
X2568433Y2711037D1*
X2556770Y2730077D1*
X2548223Y2750703D1*
X2543013Y2772413D1*
X2541260Y2794673D1*
X2543013Y2816933D1*
X2548223Y2838643D1*
X2556770Y2859270D1*
X2568433Y2878310D1*
X2582937Y2895287D1*
X2599913Y2909790D1*
X2619387Y2921657D1*
X2599913Y2933557D1*
X2582937Y2948060D1*
X2568433Y2965037D1*
X2556770Y2984077D1*
X2548223Y3004703D1*
X2543013Y3026413D1*
X2541260Y3048673D1*
X2543013Y3070933D1*
X2548223Y3092643D1*
X2556770Y3113270D1*
X2568433Y3132310D1*
X2582937Y3149287D1*
X2599913Y3163790D1*
X2619387Y3175657D1*
X2599913Y3187557D1*
X2582937Y3202060D1*
X2568433Y3219037D1*
X2556770Y3238077D1*
X2548223Y3258703D1*
X2543013Y3280413D1*
X2541260Y3302673D1*
X2543013Y3324933D1*
X2548223Y3346643D1*
X2556770Y3367270D1*
X2568433Y3386310D1*
X2582937Y3403287D1*
X2599913Y3417790D1*
X2619387Y3429657D1*
X2599913Y3441557D1*
X2582937Y3456060D1*
X2568433Y3473037D1*
X2556770Y3492077D1*
X2548223Y3512703D1*
X2543013Y3534413D1*
X2541260Y3556673D1*
X2543013Y3578933D1*
X2548223Y3600643D1*
X2556770Y3621270D1*
X2568433Y3640310D1*
X2582937Y3657287D1*
X2599913Y3671790D1*
X2619387Y3683657D1*
X2599913Y3695557D1*
X2582937Y3710060D1*
X2568433Y3727037D1*
X2556770Y3746077D1*
X2548223Y3766703D1*
X2543013Y3788413D1*
X2541260Y3810673D1*
X2543013Y3832933D1*
X2548223Y3854643D1*
X2556770Y3875270D1*
X2568433Y3894310D1*
X2582937Y3911287D1*
X2599913Y3925790D1*
X2619387Y3937657D1*
X2599913Y3949557D1*
X2582937Y3964060D1*
X2568433Y3981037D1*
X2556770Y4000077D1*
X2548223Y4020703D1*
X2543013Y4042413D1*
X2541260Y4064673D1*
X2543013Y4086933D1*
X2548223Y4108643D1*
X2556770Y4129270D1*
X2568433Y4148310D1*
X2582937Y4165287D1*
X2599913Y4179790D1*
X2619387Y4191657D1*
X2599913Y4203557D1*
X2582937Y4218060D1*
X2568433Y4235037D1*
X2556770Y4254077D1*
X2548223Y4274703D1*
X2543310Y4294917D1*
X2145740Y3897273D1*
X2146233Y3506400D1*
X2163857Y3512127D1*
X2182157Y3515027D1*
X2200690D1*
X2218990Y3512127D1*
X2236613Y3506400D1*
X2253127Y3497987D1*
X2268117Y3487097D1*
X2281220Y3473993D1*
X2292110Y3459003D1*
X2300523Y3442490D1*
X2306250Y3424867D1*
X2309150Y3406567D1*
Y3388033D1*
X2306250Y3369733D1*
X2300523Y3352110D1*
X2292110Y3335597D1*
X2281220Y3320607D1*
X2275197Y3314090D1*
X2275213Y3023867D1*
X2289110Y3030777D1*
X2306733Y3036503D1*
X2325033Y3039403D1*
X2343567D1*
X2361867Y3036503D1*
X2379490Y3030777D1*
X2396003Y3022363D1*
X2410993Y3011473D1*
X2424097Y2998370D1*
X2434987Y2983380D1*
X2443400Y2966867D1*
X2449127Y2949243D1*
X2452027Y2930943D1*
Y2912410D1*
X2449127Y2894110D1*
X2443400Y2876487D1*
X2434987Y2859973D1*
X2424097Y2844983D1*
X2418073Y2838467D1*
X2417833Y1565727D1*
X2413990Y1546407D1*
X2405743Y1528520D1*
X2393550Y1513050D1*
X2392927Y1512477D1*
X2125633Y1245133D1*
X2127340Y1223050D1*
X2125587Y1200790D1*
X2120377Y1179080D1*
X2111830Y1158453D1*
X2100167Y1139413D1*
X2090610Y1127787D1*
X2260257Y1127800D1*
X2244727Y1148703D1*
X2234590Y1168597D1*
X2227690Y1189833D1*
X2224200Y1211887D1*
Y1234213D1*
X2227690Y1256267D1*
X2234590Y1277503D1*
X2244727Y1297397D1*
X2257853Y1315460D1*
X2273640Y1331247D1*
X2291703Y1344373D1*
X2311597Y1354510D1*
X2332833Y1361410D1*
X2354887Y1364900D1*
X2377213D1*
X2399267Y1361410D1*
X2420503Y1354510D1*
X2440397Y1344373D1*
X2458460Y1331247D1*
X2474247Y1315460D1*
X2487373Y1297397D1*
X2497510Y1277503D1*
X2504410Y1256267D1*
X2507900Y1234213D1*
Y1211887D1*
X2504410Y1189833D1*
X2497510Y1168597D1*
X2487373Y1148703D1*
X2474247Y1130640D1*
X2471610Y1127787D1*
X2746927Y1127800D1*
D17*
X1159550Y4572673D3*
D18*
Y4318673D3*
Y4064673D3*
Y3810673D3*
Y3556673D3*
Y3302673D3*
Y3048673D3*
Y2794673D3*
Y2540673D3*
Y2286673D3*
Y2032673D3*
Y1778673D3*
Y1524673D3*
Y1270673D3*
X2683550D3*
Y1524673D3*
Y1778673D3*
Y2032673D3*
Y2286673D3*
Y2540673D3*
Y2794673D3*
Y3048673D3*
Y3302673D3*
Y3556673D3*
Y3810673D3*
Y4064673D3*
Y4318673D3*
Y4572673D3*
D22*
X1413550Y1223050D3*
X1604050D3*
X1794550D3*
X1985050D3*
X2175550D3*
X2366050D3*
D23*
X2048550Y3064550D3*
X1858550D3*
M02*
