G04 DipTrace 3.0.0.2*
G04 82S100replacement.GBO*
%MOMM*%
G04 #@! TF.FileFunction,Legend,Bot*
G04 #@! TF.Part,Single*
%ADD10C,0.25*%
%ADD42C,0.19608*%
%ADD44C,0.31373*%
%FSLAX35Y35*%
G04*
G71*
G90*
G75*
G01*
G04 BotSilk*
%LPD*%
X2153603Y2999600D2*
D10*
Y3129500D1*
X1962861Y3295214D2*
D42*
X1968898Y3307287D1*
X1981111Y3319500D1*
X1993185Y3325537D1*
X2017471D1*
X2029685Y3319500D1*
X2041758Y3307287D1*
X2047935Y3295214D1*
X2053971Y3276964D1*
Y3246500D1*
X2047935Y3228390D1*
X2041758Y3216177D1*
X2029685Y3204104D1*
X2017471Y3197927D1*
X1993185D1*
X1981111Y3204104D1*
X1968898Y3216177D1*
X1962861Y3228390D1*
X1923646Y3301110D2*
X1911432Y3307287D1*
X1893182Y3325396D1*
Y3197927D1*
X1369875Y4637241D2*
D44*
X1505992Y4598382D1*
X1369875Y4559524D1*
X1505992Y4520665D1*
X1369875Y4481807D1*
Y4419062D2*
X1505992Y4380203D1*
X1369875Y4341345D1*
X1505992Y4302486D1*
X1369875Y4263628D1*
Y4200883D2*
X1505992Y4162024D1*
X1369875Y4123166D1*
X1505992Y4084307D1*
X1369875Y4045449D1*
X1486451Y3973045D2*
X1496334Y3982704D1*
X1505992Y3973045D1*
X1496334Y3963162D1*
X1486451Y3973045D1*
X1301817Y3783842D2*
X1505992D1*
X1399075D2*
X1379534Y3803159D1*
X1369875Y3822700D1*
Y3851900D1*
X1379534Y3871217D1*
X1399075Y3890759D1*
X1428275Y3900417D1*
X1447592D1*
X1476792Y3890759D1*
X1496109Y3871217D1*
X1505992Y3851900D1*
Y3822700D1*
X1496109Y3803159D1*
X1476792Y3783842D1*
X1369875Y3604521D2*
X1505992D1*
X1399075D2*
X1379534Y3623838D1*
X1369875Y3643380D1*
Y3672355D1*
X1379534Y3691897D1*
X1399075Y3711214D1*
X1428275Y3721097D1*
X1447592D1*
X1476792Y3711214D1*
X1496109Y3691897D1*
X1505992Y3672355D1*
Y3643380D1*
X1496109Y3623838D1*
X1476792Y3604521D1*
X1301817Y3512576D2*
X1467134D1*
X1496109Y3502918D1*
X1505992Y3483376D1*
Y3464059D1*
X1369875Y3541776D2*
Y3473718D1*
Y3352797D2*
X1379534Y3372114D1*
X1399075Y3391656D1*
X1428275Y3401314D1*
X1447592D1*
X1476792Y3391656D1*
X1496109Y3372114D1*
X1505992Y3352797D1*
Y3323597D1*
X1496109Y3304056D1*
X1476792Y3284739D1*
X1447592Y3274856D1*
X1428275D1*
X1399075Y3284739D1*
X1379534Y3304056D1*
X1369875Y3323597D1*
Y3352797D1*
Y3212111D2*
X1505992D1*
X1428275D2*
X1399075Y3202228D1*
X1379534Y3182911D1*
X1369875Y3163369D1*
Y3134169D1*
Y3071424D2*
X1505992D1*
X1408734D2*
X1379534Y3042224D1*
X1369875Y3022682D1*
Y2993707D1*
X1379534Y2974166D1*
X1408734Y2964507D1*
X1505992D1*
X1408734D2*
X1379534Y2935307D1*
X1369875Y2915766D1*
Y2886790D1*
X1379534Y2867249D1*
X1408734Y2857366D1*
X1505992D1*
X1369875Y2794620D2*
X1467134D1*
X1496109Y2784962D1*
X1505992Y2765420D1*
Y2736220D1*
X1496109Y2716904D1*
X1467134Y2687704D1*
X1369875D2*
X1505992D1*
X1399075Y2518041D2*
X1379534Y2527700D1*
X1369875Y2556900D1*
Y2586100D1*
X1379534Y2615300D1*
X1399075Y2624958D1*
X1418392Y2615300D1*
X1428275Y2595758D1*
X1437934Y2547241D1*
X1447592Y2527700D1*
X1467134Y2518041D1*
X1476792D1*
X1496109Y2527700D1*
X1505992Y2556900D1*
Y2586100D1*
X1496109Y2615300D1*
X1476792Y2624958D1*
X1428275Y2455296D2*
Y2338721D1*
X1408734D1*
X1389192Y2348379D1*
X1379534Y2358038D1*
X1369875Y2377579D1*
Y2406779D1*
X1379534Y2426096D1*
X1399075Y2445638D1*
X1428275Y2455296D1*
X1447592D1*
X1476792Y2445638D1*
X1496109Y2426096D1*
X1505992Y2406779D1*
Y2377579D1*
X1496109Y2358038D1*
X1476792Y2338721D1*
X1369875Y2275976D2*
X1467134D1*
X1496109Y2266317D1*
X1505992Y2246776D1*
Y2217576D1*
X1496109Y2198259D1*
X1467134Y2169059D1*
X1369875D2*
X1505992D1*
X1369875Y2106314D2*
X1505992D1*
X1408734D2*
X1379534Y2077114D1*
X1369875Y2057572D1*
Y2028597D1*
X1379534Y2009055D1*
X1408734Y1999397D1*
X1505992D1*
X1408734D2*
X1379534Y1970197D1*
X1369875Y1950655D1*
Y1921680D1*
X1379534Y1902139D1*
X1408734Y1892255D1*
X1505992D1*
X1486451Y1819852D2*
X1496334Y1829510D1*
X1505992Y1819852D1*
X1496334Y1809969D1*
X1486451Y1819852D1*
X1399075Y1640307D2*
X1379534Y1649965D1*
X1369875Y1679165D1*
Y1708365D1*
X1379534Y1737565D1*
X1399075Y1747224D1*
X1418392Y1737565D1*
X1428275Y1718024D1*
X1437934Y1669507D1*
X1447592Y1649965D1*
X1467134Y1640307D1*
X1476792D1*
X1496109Y1649965D1*
X1505992Y1679165D1*
Y1708365D1*
X1496109Y1737565D1*
X1476792Y1747224D1*
X1428275Y1577562D2*
Y1460987D1*
X1408734D1*
X1389192Y1470645D1*
X1379534Y1480304D1*
X1369875Y1499845D1*
Y1529045D1*
X1379534Y1548362D1*
X1399075Y1567903D1*
X1428275Y1577562D1*
X1447592D1*
X1476792Y1567903D1*
X1496109Y1548362D1*
X1505992Y1529045D1*
Y1499845D1*
X1496109Y1480304D1*
X1476792Y1460987D1*
X1615515Y4303593D2*
D42*
X1621552Y4321703D1*
X1633625Y4327880D1*
X1645839D1*
X1657912Y4321703D1*
X1664089Y4309630D1*
X1670125Y4285343D1*
X1676162Y4267093D1*
X1688375Y4255020D1*
X1700448Y4248983D1*
X1718698D1*
X1730771Y4255020D1*
X1736948Y4261057D1*
X1742985Y4279307D1*
Y4303593D1*
X1736948Y4321703D1*
X1730771Y4327880D1*
X1718698Y4333916D1*
X1700448D1*
X1688375Y4327880D1*
X1676162Y4315666D1*
X1670125Y4297557D1*
X1664089Y4273270D1*
X1657912Y4261057D1*
X1645839Y4255020D1*
X1633625D1*
X1621552Y4261057D1*
X1615515Y4279307D1*
Y4303593D1*
X1645839Y4203591D2*
X1639802D1*
X1627589Y4197554D1*
X1621552Y4191518D1*
X1615515Y4179304D1*
Y4155018D1*
X1621552Y4142945D1*
X1627589Y4136908D1*
X1639802Y4130731D1*
X1651875D1*
X1664089Y4136908D1*
X1682198Y4148981D1*
X1742985Y4209768D1*
Y4124695D1*
X1633625Y4000406D2*
X1621412Y4012479D1*
X1615375Y4030729D1*
Y4055016D1*
X1621412Y4073266D1*
X1633625Y4085479D1*
X1645698D1*
X1657912Y4079302D1*
X1663948Y4073266D1*
X1669985Y4061192D1*
X1682198Y4024692D1*
X1688235Y4012479D1*
X1694412Y4006442D1*
X1706485Y4000406D1*
X1724735D1*
X1736808Y4012479D1*
X1742985Y4030729D1*
Y4055016D1*
X1736808Y4073266D1*
X1724735Y4085479D1*
X1639802Y3961190D2*
X1633625Y3948977D1*
X1615515Y3930727D1*
X1742985D1*
X1615515Y3855011D2*
X1621552Y3873261D1*
X1639802Y3885475D1*
X1670125Y3891511D1*
X1688375D1*
X1718698Y3885475D1*
X1736948Y3873261D1*
X1742985Y3855011D1*
Y3842938D1*
X1736948Y3824688D1*
X1718698Y3812615D1*
X1688375Y3806438D1*
X1670125D1*
X1639802Y3812615D1*
X1621552Y3824688D1*
X1615515Y3842938D1*
Y3855011D1*
X1639802Y3812615D2*
X1718698Y3885475D1*
X1615515Y3730722D2*
X1621552Y3748972D1*
X1639802Y3761186D1*
X1670125Y3767222D1*
X1688375D1*
X1718698Y3761186D1*
X1736948Y3748972D1*
X1742985Y3730722D1*
Y3718649D1*
X1736948Y3700399D1*
X1718698Y3688326D1*
X1688375Y3682149D1*
X1670125D1*
X1639802Y3688326D1*
X1621552Y3700399D1*
X1615515Y3718649D1*
Y3730722D1*
X1639802Y3688326D2*
X1718698Y3761186D1*
X1742985Y3642934D2*
X1615515Y3557861D1*
Y3488322D2*
X1621552Y3506431D1*
X1633625Y3512608D1*
X1645839D1*
X1657912Y3506431D1*
X1664089Y3494358D1*
X1670125Y3470072D1*
X1676162Y3451822D1*
X1688375Y3439749D1*
X1700448Y3433712D1*
X1718698D1*
X1730771Y3439749D1*
X1736948Y3445785D1*
X1742985Y3464035D1*
Y3488322D1*
X1736948Y3506431D1*
X1730771Y3512608D1*
X1718698Y3518645D1*
X1700448D1*
X1688375Y3512608D1*
X1676162Y3500395D1*
X1670125Y3482285D1*
X1664089Y3457999D1*
X1657912Y3445785D1*
X1645839Y3439749D1*
X1633625D1*
X1621552Y3445785D1*
X1615515Y3464035D1*
Y3488322D1*
X1645839Y3388320D2*
X1639802D1*
X1627589Y3382283D1*
X1621552Y3376246D1*
X1615515Y3364033D1*
Y3339746D1*
X1621552Y3327673D1*
X1627589Y3321637D1*
X1639802Y3315460D1*
X1651875D1*
X1664089Y3321637D1*
X1682198Y3333710D1*
X1742985Y3394496D1*
Y3309423D1*
X1633625Y3185135D2*
X1621412Y3197208D1*
X1615375Y3215458D1*
Y3239744D1*
X1621412Y3257994D1*
X1633625Y3270208D1*
X1645698D1*
X1657912Y3264031D1*
X1663948Y3257994D1*
X1669985Y3245921D1*
X1682198Y3209421D1*
X1688235Y3197208D1*
X1694412Y3191171D1*
X1706485Y3185135D1*
X1724735D1*
X1736808Y3197208D1*
X1742985Y3215458D1*
Y3239744D1*
X1736808Y3257994D1*
X1724735Y3270208D1*
X1639802Y3145919D2*
X1633625Y3133705D1*
X1615515Y3115455D1*
X1742985D1*
X1615516Y3039740D2*
X1621552Y3057990D1*
X1639802Y3070203D1*
X1670125Y3076240D1*
X1688375D1*
X1718698Y3070203D1*
X1736948Y3057990D1*
X1742985Y3039740D1*
Y3027667D1*
X1736948Y3009417D1*
X1718698Y2997344D1*
X1688375Y2991167D1*
X1670125D1*
X1639802Y2997344D1*
X1621552Y3009417D1*
X1615516Y3027667D1*
Y3039740D1*
X1639802Y2997344D2*
X1718698Y3070203D1*
X1639802Y2951951D2*
X1633625Y2939738D1*
X1615516Y2921488D1*
X1742985D1*
X1657912Y2758825D2*
X1742985D1*
X1694412D2*
X1676162Y2752648D1*
X1663948Y2740575D1*
X1657912Y2728362D1*
Y2710112D1*
X1694412Y2670896D2*
Y2598037D1*
X1682198D1*
X1669985Y2604073D1*
X1663948Y2610110D1*
X1657912Y2622323D1*
Y2640573D1*
X1663948Y2652646D1*
X1676162Y2664860D1*
X1694412Y2670896D1*
X1706485D1*
X1724735Y2664860D1*
X1736808Y2652646D1*
X1742985Y2640573D1*
Y2622323D1*
X1736808Y2610110D1*
X1724735Y2598037D1*
X1657912Y2558821D2*
X1785521D1*
X1676162D2*
X1664089Y2546607D1*
X1657912Y2534534D1*
Y2516284D1*
X1664089Y2504071D1*
X1676162Y2491998D1*
X1694412Y2485821D1*
X1706625D1*
X1724735Y2491998D1*
X1736948Y2504071D1*
X1742985Y2516284D1*
Y2534534D1*
X1736948Y2546607D1*
X1724735Y2558821D1*
X1615375Y2446605D2*
X1742985D1*
X1657912Y2334530D2*
X1742985D1*
X1676162D2*
X1663948Y2346603D1*
X1657912Y2358817D1*
Y2376926D1*
X1663948Y2389140D1*
X1676162Y2401213D1*
X1694412Y2407390D1*
X1706485D1*
X1724735Y2401213D1*
X1736808Y2389140D1*
X1742985Y2376926D1*
Y2358817D1*
X1736808Y2346603D1*
X1724735Y2334530D1*
X1676162Y2222314D2*
X1663948Y2234528D1*
X1657912Y2246741D1*
Y2264851D1*
X1663948Y2277064D1*
X1676162Y2289137D1*
X1694412Y2295314D1*
X1706485D1*
X1724735Y2289137D1*
X1736808Y2277064D1*
X1742985Y2264851D1*
Y2246741D1*
X1736808Y2234528D1*
X1724735Y2222314D1*
X1694412Y2183099D2*
Y2110239D1*
X1682198D1*
X1669985Y2116276D1*
X1663948Y2122312D1*
X1657912Y2134526D1*
Y2152776D1*
X1663948Y2164849D1*
X1676162Y2177062D1*
X1694412Y2183099D1*
X1706485D1*
X1724735Y2177062D1*
X1736808Y2164849D1*
X1742985Y2152776D1*
Y2134526D1*
X1736808Y2122312D1*
X1724735Y2110239D1*
X1657912Y2071023D2*
X1742985D1*
X1682198D2*
X1663948Y2052773D1*
X1657912Y2040560D1*
Y2022450D1*
X1663948Y2010237D1*
X1682198Y2004200D1*
X1742985D1*
X1682198D2*
X1663948Y1985950D1*
X1657912Y1973737D1*
Y1955627D1*
X1663948Y1943414D1*
X1682198Y1937237D1*
X1742985D1*
X1694412Y1898021D2*
Y1825162D1*
X1682198D1*
X1669985Y1831198D1*
X1663948Y1837235D1*
X1657912Y1849448D1*
Y1867698D1*
X1663948Y1879771D1*
X1676162Y1891985D1*
X1694412Y1898021D1*
X1706485D1*
X1724735Y1891985D1*
X1736808Y1879771D1*
X1742985Y1867698D1*
Y1849448D1*
X1736808Y1837235D1*
X1724735Y1825161D1*
X1657912Y1785946D2*
X1742985D1*
X1682198D2*
X1663948Y1767696D1*
X1657912Y1755482D1*
Y1737373D1*
X1663948Y1725159D1*
X1682198Y1719123D1*
X1742985D1*
X1615375Y1661657D2*
X1718698D1*
X1736808Y1655621D1*
X1742985Y1643407D1*
Y1631334D1*
X1657912Y1679907D2*
Y1637371D1*
X2378085Y4287132D2*
X2366012Y4293169D1*
X2353798Y4305382D1*
X2347762Y4317455D1*
Y4341742D1*
X2353798Y4353955D1*
X2366012Y4366029D1*
X2378085Y4372205D1*
X2396335Y4378242D1*
X2426798D1*
X2444908Y4372205D1*
X2457121Y4366029D1*
X2469194Y4353955D1*
X2475371Y4341742D1*
Y4317455D1*
X2469194Y4305382D1*
X2457121Y4293169D1*
X2444908Y4287132D1*
X2390298Y4175057D2*
X2475371D1*
X2408548D2*
X2396335Y4187130D1*
X2390298Y4199344D1*
Y4217453D1*
X2396335Y4229667D1*
X2408548Y4241740D1*
X2426798Y4247917D1*
X2438871D1*
X2457121Y4241740D1*
X2469194Y4229667D1*
X2475371Y4217453D1*
Y4199344D1*
X2469194Y4187130D1*
X2457121Y4175057D1*
X2390298Y4135841D2*
X2475371D1*
X2414585D2*
X2396335Y4117591D1*
X2390298Y4105378D1*
Y4087268D1*
X2396335Y4075055D1*
X2414585Y4069018D1*
X2475371D1*
X2347762Y3906356D2*
X2475371D1*
X2408548D2*
X2396335Y3894143D1*
X2390298Y3882070D1*
Y3863820D1*
X2396335Y3851747D1*
X2408548Y3839533D1*
X2426798Y3833497D1*
X2438871D1*
X2457121Y3839533D1*
X2469194Y3851747D1*
X2475371Y3863820D1*
Y3882070D1*
X2469194Y3894143D1*
X2457121Y3906356D1*
X2426798Y3794281D2*
Y3721421D1*
X2414585D1*
X2402371Y3727458D1*
X2396335Y3733494D1*
X2390298Y3745708D1*
Y3763958D1*
X2396335Y3776031D1*
X2408548Y3788244D1*
X2426798Y3794281D1*
X2438871D1*
X2457121Y3788244D1*
X2469194Y3776031D1*
X2475371Y3763958D1*
Y3745708D1*
X2469194Y3733494D1*
X2457121Y3721421D1*
X2390298Y3558759D2*
X2451085D1*
X2469194Y3552723D1*
X2475371Y3540509D1*
Y3522259D1*
X2469194Y3510186D1*
X2451085Y3491936D1*
X2390298D2*
X2475371D1*
X2408548Y3385897D2*
X2396335Y3391934D1*
X2390298Y3410184D1*
Y3428434D1*
X2396335Y3446684D1*
X2408548Y3452720D1*
X2420621Y3446684D1*
X2426798Y3434470D1*
X2432835Y3404147D1*
X2438871Y3391934D1*
X2451085Y3385897D1*
X2457121D1*
X2469194Y3391934D1*
X2475371Y3410184D1*
Y3428434D1*
X2469194Y3446684D1*
X2457121Y3452720D1*
X2426798Y3346682D2*
Y3273822D1*
X2414585D1*
X2402371Y3279859D1*
X2396335Y3285895D1*
X2390298Y3298109D1*
Y3316359D1*
X2396335Y3328432D1*
X2408548Y3340645D1*
X2426798Y3346682D1*
X2438871D1*
X2457121Y3340645D1*
X2469194Y3328432D1*
X2475371Y3316359D1*
Y3298109D1*
X2469194Y3285895D1*
X2457121Y3273822D1*
X2347762Y3161747D2*
X2475371D1*
X2408548D2*
X2396335Y3173820D1*
X2390298Y3186033D1*
Y3204283D1*
X2396335Y3216356D1*
X2408548Y3228570D1*
X2426798Y3234606D1*
X2438871D1*
X2457121Y3228570D1*
X2469194Y3216356D1*
X2475371Y3204283D1*
Y3186033D1*
X2469194Y3173820D1*
X2457121Y3161747D1*
X2390298Y2926225D2*
X2475371D1*
X2408548D2*
X2396335Y2938298D1*
X2390298Y2950511D1*
Y2968621D1*
X2396335Y2980835D1*
X2408548Y2992908D1*
X2426798Y2999085D1*
X2438871D1*
X2457121Y2992908D1*
X2469194Y2980835D1*
X2475371Y2968621D1*
Y2950511D1*
X2469194Y2938298D1*
X2457121Y2926225D1*
X2408548Y2820186D2*
X2396335Y2826223D1*
X2390298Y2844473D1*
Y2862723D1*
X2396335Y2880973D1*
X2408548Y2887009D1*
X2420621Y2880973D1*
X2426798Y2868759D1*
X2432835Y2838436D1*
X2438871Y2826223D1*
X2451085Y2820186D1*
X2457121D1*
X2469194Y2826223D1*
X2475371Y2844473D1*
Y2862723D1*
X2469194Y2880973D1*
X2457121Y2887009D1*
X2378085Y2566414D2*
X2366012Y2572451D1*
X2353798Y2584664D1*
X2347762Y2596737D1*
Y2621024D1*
X2353798Y2633237D1*
X2366012Y2645311D1*
X2378085Y2651487D1*
X2396335Y2657524D1*
X2426798D1*
X2444908Y2651487D1*
X2457121Y2645311D1*
X2469194Y2633237D1*
X2475371Y2621024D1*
Y2596737D1*
X2469194Y2584664D1*
X2457121Y2572451D1*
X2444908Y2566414D1*
X2347762Y2527199D2*
X2475371D1*
Y2472449D1*
X2469194Y2454199D1*
X2463158Y2448162D1*
X2451085Y2442126D1*
X2432835D1*
X2420621Y2448162D1*
X2414585Y2454199D1*
X2408548Y2472449D1*
X2402371Y2454199D1*
X2396335Y2448162D1*
X2384262Y2442126D1*
X2372048D1*
X2359975Y2448162D1*
X2353798Y2454199D1*
X2347762Y2472449D1*
Y2527199D1*
X2408548D2*
Y2472449D1*
X2475371Y2305764D2*
X2347762D1*
X2475371Y2354337D1*
X2347762Y2402910D1*
X2475371D1*
X2366012Y2193689D2*
X2353939Y2199725D1*
X2347902Y2217975D1*
Y2230048D1*
X2353939Y2248298D1*
X2372189Y2260512D1*
X2402512Y2266548D1*
X2432835D1*
X2457121Y2260512D1*
X2469335Y2248298D1*
X2475371Y2230048D1*
Y2224012D1*
X2469335Y2205902D1*
X2457121Y2193689D1*
X2438871Y2187652D1*
X2432835D1*
X2414585Y2193689D1*
X2402512Y2205902D1*
X2396475Y2224012D1*
Y2230048D1*
X2402512Y2248298D1*
X2414585Y2260512D1*
X2432835Y2266548D1*
X2475371Y2087650D2*
X2347902D1*
X2432835Y2148436D1*
Y2057327D1*
X2414585Y1894665D2*
Y1839915D1*
X2408548Y1821805D1*
X2402371Y1815628D1*
X2390298Y1809592D1*
X2372048D1*
X2359975Y1815628D1*
X2353798Y1821805D1*
X2347762Y1839915D1*
Y1894665D1*
X2475371D1*
X2347762Y1770376D2*
X2475371D1*
Y1697516D1*
Y1561014D2*
X2347762Y1609728D1*
X2475371Y1658301D1*
X2432835Y1640051D2*
Y1579264D1*
M02*
