G04 DipTrace 3.0.0.2*
G04 82S100replacement.GTL*
%MOMM*%
G04 #@! TF.FileFunction,Copper,L1,Top*
G04 #@! TF.Part,Single*
G04 #@! TA.AperFunction,Conductor*
%ADD13C,0.33*%
%ADD15C,0.5*%
G04 #@! TA.AperFunction,CopperBalancing*
%ADD16C,0.635*%
G04 #@! TA.AperFunction,ComponentPad*
%ADD17R,1.5X1.5*%
%ADD18C,1.5*%
%ADD20R,1.8X0.5*%
%ADD21R,0.5X1.8*%
G04 #@! TA.AperFunction,ComponentPad*
%ADD22C,1.5*%
G04 #@! TA.AperFunction,ViaPad*
%ADD24C,1.016*%
%FSLAX35Y35*%
G04*
G71*
G90*
G75*
G01*
G04 Top*
%LPD*%
X1350050Y3237300D2*
D13*
X1618050D1*
X2490050Y2757300D2*
X2292300D1*
X2175550Y2874050D1*
Y3016923D1*
X2143800Y3048673D1*
X1806677D1*
X1618050Y3237300D1*
X1840050Y2507300D2*
Y2701550D1*
X1794550Y2747050D1*
X2160050Y3647300D2*
Y3509427D1*
X2080300Y3429677D1*
X1937427D1*
X1921550Y3413800D1*
X1680050Y3647300D2*
Y3909300D1*
X1286550Y4302800D1*
X1175423D1*
X1159550Y4318673D1*
X1600050Y3647300D2*
Y3894050D1*
X1445300Y4048800D1*
X1175423D1*
X1159550Y4064673D1*
X1520050Y3647300D2*
X1322923D1*
X1159550Y3810673D1*
Y3556673D2*
Y3493177D1*
X1254800Y3397927D1*
X1349423D1*
X1350050Y3397300D1*
X1159550Y3302673D2*
X1223050D1*
X1238927Y3318550D1*
X1348800D1*
X1350050Y3317300D1*
Y3077300D2*
X1188177D1*
X1159550Y3048673D1*
Y2794673D2*
Y2826427D1*
X1254800Y2921677D1*
X1345673D1*
X1350050Y2917300D1*
X1159550Y2540673D2*
Y2588300D1*
X1254800Y2683550D1*
X1343800D1*
X1350050Y2677300D1*
X1159550Y2286673D2*
X1397673D1*
X1508800Y2397800D1*
Y2496050D1*
X1520050Y2507300D1*
X1600050D2*
Y2346177D1*
X1286547Y2032673D1*
X1159550D1*
X1680050Y2507300D2*
Y2172177D1*
X1286547Y1778673D1*
X1159550D1*
X1760050Y2507300D2*
Y2014050D1*
X1270673Y1524673D1*
X1159550D1*
X2000050Y2507300D2*
Y1779550D1*
X2524800Y1254800D1*
X2667677D1*
X2683550Y1270673D1*
X2080050Y2507300D2*
Y1858300D1*
X2413677Y1524673D1*
X2683550D1*
X2160050Y2507300D2*
Y2175173D1*
X2556550Y1778673D1*
X2683550D1*
X2240050Y2507300D2*
Y2333300D1*
X2540677Y2032673D1*
X2683550D1*
Y2286673D2*
X2540677D1*
X2320050Y2507300D1*
X2683550Y2540673D2*
X2626677D1*
X2490050Y2677300D1*
Y2837300D2*
X2640923D1*
X2683550Y2794673D1*
X2490050Y2997300D2*
X2632177D1*
X2683550Y3048673D1*
X2490050Y3237300D2*
X2618177D1*
X2683550Y3302673D1*
X2490050Y3477300D2*
X2604177D1*
X2683550Y3556673D1*
X2320050Y3647300D2*
X2520177D1*
X2683550Y3810673D1*
X2240050Y3647300D2*
Y3779927D1*
X2524797Y4064673D1*
X2683550D1*
X2080050Y3647300D2*
Y3873927D1*
X2524797Y4318673D1*
X2683550D1*
X2490050Y2917300D2*
X2338677D1*
X2334300Y2921677D1*
X1350050Y3477300D2*
X1445300D1*
X1508800Y3413800D1*
X2490050Y3397300D2*
X2191423D1*
X1350050Y2997300D2*
X1505050D1*
X1508800Y3001050D1*
X1920050Y2507300D2*
Y2777300D1*
X1980050Y2837300D1*
X2064423Y2921673D1*
X1350050Y2837300D2*
X1980050D1*
X2490050Y3157300D2*
X2114550D1*
X2048550Y3223300D1*
X1920050Y2507300D2*
D15*
Y1669050D1*
X2366050Y1223050D1*
X1760050Y3647300D2*
D13*
Y3384800D1*
X1921550Y3223300D1*
X2048550D1*
D24*
X1618050Y3237300D3*
X1794550Y2747050D3*
X1921550Y3413800D3*
X2334300Y2921677D3*
X1508800Y3413800D3*
X2191423Y3397300D3*
X1508800Y3001050D3*
X2064423Y2921673D3*
X2048550Y3223300D3*
D3*
X1308217Y4652383D2*
D16*
X2559316D1*
X1308217Y4589217D2*
X2535875D1*
X1308217Y4526050D2*
X2542821D1*
X1308217Y4462883D2*
X2586725D1*
X1282916Y4399717D2*
X2497304D1*
X1377546Y4336550D2*
X2417929D1*
X1440798Y4273383D2*
X2354677D1*
X1503926Y4210217D2*
X2291549D1*
X1567054Y4147050D2*
X2228421D1*
X1630306Y4083883D2*
X2165169D1*
X1693434Y4020717D2*
X2102041D1*
X1754825Y3957550D2*
X2038913D1*
X1770204Y3894383D2*
X1992529D1*
X1770204Y3831217D2*
X1989924D1*
X1626833Y3452217D2*
X1669944D1*
X1630678Y3389050D2*
X1669944D1*
X1593967Y3325883D2*
X1694128D1*
X1513724Y3262717D2*
X1757380D1*
X1513724Y3199550D2*
X1820508D1*
X1513724Y3136383D2*
X1962267D1*
X1608602Y3073217D2*
X2326400D1*
X1632910Y3010050D2*
X1979754D1*
X2149096D2*
X2249629D1*
X1620136Y2946883D2*
X1942671D1*
X2182582Y2883717D2*
X2216137D1*
X2131733Y2820550D2*
X2266992D1*
X2024948Y2757383D2*
X2326400D1*
X1513724Y2694217D2*
X1829934D1*
X2010190D2*
X2326400D1*
X1743911Y1873050D2*
X1821500D1*
X1680659Y1809883D2*
X1821500D1*
X1617531Y1746717D2*
X1821500D1*
X1554403Y1683550D2*
X1821500D1*
X1491151Y1620383D2*
X1835267D1*
X1428024Y1557217D2*
X1895046D1*
X1364896Y1494050D2*
X1958174D1*
X1272870Y1430883D2*
X2021426D1*
X1134150Y1367717D2*
X2084554D1*
X1134150Y1304550D2*
X1290556D1*
X2108044D2*
X2147682D1*
X1134150Y1241383D2*
X1266123D1*
X2132477D2*
X2210934D1*
X1134150Y1178217D2*
X1272200D1*
X2126400D2*
X2224700D1*
X1127765Y4714963D2*
X1301840D1*
Y4430383D1*
X1247642D1*
X1260164Y4419288D1*
X1274665Y4402309D1*
X1284476Y4386584D1*
X1299658Y4385558D1*
X1318615Y4380212D1*
X1335801Y4370588D1*
X1345798Y4362048D1*
X1743764Y3963717D1*
X1754707Y3947340D1*
X1761525Y3928860D1*
X1763840Y3909300D1*
X1763807Y3908453D1*
X1763840Y3804500D1*
X1996189Y3804589D1*
X1996518Y3880501D1*
X2000361Y3899819D1*
X2008607Y3917707D1*
X2020801Y3933175D1*
X2021424Y3933751D1*
X2470379Y4382388D1*
X2486757Y4393331D1*
X2505236Y4400148D1*
X2524797Y4402464D1*
X2525644Y4402430D1*
X2568577Y4402464D1*
X2582936Y4419288D1*
X2599914Y4433788D1*
X2619388Y4445656D1*
X2599914Y4457558D1*
X2582936Y4472059D1*
X2568435Y4489037D1*
X2556769Y4508075D1*
X2548224Y4528703D1*
X2543012Y4550414D1*
X2541260Y4572673D1*
X2543012Y4594932D1*
X2548224Y4616643D1*
X2556769Y4637272D1*
X2568435Y4656309D1*
X2582936Y4673288D1*
X2599914Y4687788D1*
X2618952Y4699455D1*
X2639580Y4707999D1*
X2661291Y4713212D1*
X2683550Y4714963D1*
X2705809Y4713212D1*
X2715354Y4711313D1*
X2715300Y4715550D1*
X1127800Y4714930D1*
X1274638Y1441003D2*
X1260164Y1424059D1*
X1243186Y1409558D1*
X1224148Y1397892D1*
X1203520Y1389348D1*
X1181809Y1384135D1*
X1159550Y1382383D1*
X1137291Y1384135D1*
X1127746Y1386034D1*
X1127800Y1127800D1*
X1307758D1*
X1292228Y1148704D1*
X1282091Y1168598D1*
X1275191Y1189833D1*
X1271699Y1211886D1*
Y1234214D1*
X1275191Y1256267D1*
X1282091Y1277502D1*
X1292228Y1297396D1*
X1305352Y1315460D1*
X1321140Y1331248D1*
X1339204Y1344372D1*
X1359098Y1354509D1*
X1380333Y1361409D1*
X1402386Y1364901D1*
X1424714D1*
X1446767Y1361409D1*
X1468002Y1354509D1*
X1487896Y1344372D1*
X1505960Y1331248D1*
X1508748Y1328671D1*
X1529704Y1344372D1*
X1549598Y1354509D1*
X1570833Y1361409D1*
X1592886Y1364901D1*
X1615214D1*
X1637267Y1361409D1*
X1658502Y1354509D1*
X1678396Y1344372D1*
X1696460Y1331248D1*
X1699248Y1328671D1*
X1720204Y1344372D1*
X1740098Y1354509D1*
X1761333Y1361409D1*
X1783386Y1364901D1*
X1805714D1*
X1827767Y1361409D1*
X1849002Y1354509D1*
X1868896Y1344372D1*
X1886960Y1331248D1*
X1889748Y1328671D1*
X1910704Y1344372D1*
X1930598Y1354509D1*
X1951833Y1361409D1*
X1973886Y1364901D1*
X1996214D1*
X2018267Y1361409D1*
X2039502Y1354509D1*
X2059396Y1344372D1*
X2077460Y1331248D1*
X2093248Y1315460D1*
X2106372Y1297396D1*
X2116509Y1277502D1*
X2123409Y1256267D1*
X2126901Y1234214D1*
Y1211886D1*
X2123409Y1189833D1*
X2116509Y1168598D1*
X2106372Y1148704D1*
X2093248Y1130640D1*
X2090612Y1127788D1*
X2260258Y1127800D1*
X2244728Y1148704D1*
X2234591Y1168598D1*
X2227691Y1189833D1*
X2224199Y1211886D1*
X2224224Y1234431D1*
X1849872Y1609112D1*
X1841360Y1620829D1*
X1834785Y1633732D1*
X1830310Y1647505D1*
X1828044Y1661809D1*
X1827760Y1891300D1*
Y1964846D1*
X1819299Y1954801D1*
X1325091Y1460959D1*
X1308713Y1450016D1*
X1290234Y1443198D1*
X1276246Y1441102D1*
X1507340Y3295612D2*
Y3119241D1*
X1527273Y3117686D1*
X1545292Y3113360D1*
X1562412Y3106269D1*
X1578212Y3096587D1*
X1592302Y3084552D1*
X1604337Y3070462D1*
X1614019Y3054662D1*
X1621110Y3037542D1*
X1625436Y3019523D1*
X1626890Y3001050D1*
X1625436Y2982577D1*
X1621110Y2964558D1*
X1614019Y2947438D1*
X1604337Y2931638D1*
X1595523Y2921032D1*
X1945487Y2921090D1*
X1949596Y2949241D1*
X1955322Y2966864D1*
X1963735Y2983375D1*
X1974627Y2998367D1*
X1987730Y3011470D1*
X2002721Y3022362D1*
X2019232Y3030774D1*
X2036856Y3036500D1*
X2055158Y3039399D1*
X2073689D1*
X2091991Y3036500D1*
X2109614Y3030774D1*
X2126125Y3022362D1*
X2141117Y3011470D1*
X2154220Y2998367D1*
X2165112Y2983375D1*
X2173524Y2966864D1*
X2179250Y2949241D1*
X2182149Y2930939D1*
Y2912408D1*
X2179250Y2894106D1*
X2173524Y2876482D1*
X2165112Y2859971D1*
X2154220Y2844980D1*
X2141117Y2831877D1*
X2126125Y2820985D1*
X2109614Y2812572D1*
X2091991Y2806846D1*
X2073689Y2803947D1*
X2064821Y2803599D1*
X2003781Y2742534D1*
X2003840Y2664563D1*
X2332808Y2664590D1*
X2332760Y2803673D1*
X2315827Y2805041D1*
X2297808Y2809366D1*
X2280688Y2816458D1*
X2264888Y2826140D1*
X2250798Y2838174D1*
X2238763Y2852265D1*
X2229081Y2868065D1*
X2221990Y2885185D1*
X2217664Y2903203D1*
X2216210Y2921677D1*
X2217664Y2940150D1*
X2221990Y2958168D1*
X2229081Y2975288D1*
X2238763Y2991088D1*
X2250798Y3005179D1*
X2264888Y3017213D1*
X2280688Y3026896D1*
X2297808Y3033987D1*
X2315827Y3038313D1*
X2332744Y3039706D1*
X2332760Y3073439D1*
X2107976Y3073768D1*
X2088657Y3077611D1*
X2070770Y3085857D1*
X2055302Y3098052D1*
X2054726Y3098674D1*
X2048198Y3105155D1*
X2030077Y3106664D1*
X2012058Y3110990D1*
X1994938Y3118081D1*
X1979138Y3127763D1*
X1965340Y3139527D1*
X1914976Y3139768D1*
X1895657Y3143611D1*
X1877770Y3151857D1*
X1862301Y3164051D1*
X1861726Y3164674D1*
X1696335Y3330383D1*
X1685392Y3346760D1*
X1678575Y3365240D1*
X1676260Y3384800D1*
X1676293Y3385647D1*
X1676260Y3490096D1*
X1598951Y3490009D1*
X1609488Y3475502D1*
X1617901Y3458991D1*
X1623627Y3441368D1*
X1626526Y3423065D1*
Y3404535D1*
X1623627Y3386232D1*
X1617901Y3368609D1*
X1609488Y3352098D1*
X1598596Y3337107D1*
X1585493Y3324004D1*
X1570502Y3313112D1*
X1553991Y3304699D1*
X1536368Y3298973D1*
X1518065Y3296074D1*
X1507316Y3295768D1*
X1507340Y3119112D1*
Y2753586D2*
X1507761Y2664589D1*
X1836298D1*
X1836260Y2753487D1*
X1507397Y2753510D1*
X1507216Y2665010D1*
X1612340Y2664465D1*
X1836318Y2664589D1*
D17*
X1159550Y4572673D3*
D18*
Y4318673D3*
Y4064673D3*
Y3810673D3*
Y3556673D3*
Y3302673D3*
Y3048673D3*
Y2794673D3*
Y2540673D3*
Y2286673D3*
Y2032673D3*
Y1778673D3*
Y1524673D3*
Y1270673D3*
X2683550D3*
Y1524673D3*
Y1778673D3*
Y2032673D3*
Y2286673D3*
Y2540673D3*
Y2794673D3*
Y3048673D3*
Y3302673D3*
Y3556673D3*
Y3810673D3*
Y4064673D3*
Y4318673D3*
Y4572673D3*
D20*
X1350050Y3477300D3*
Y3397300D3*
Y3317300D3*
Y3237300D3*
Y3157300D3*
Y3077300D3*
Y2997300D3*
Y2917300D3*
Y2837300D3*
Y2757300D3*
Y2677300D3*
D21*
X1520050Y2507300D3*
X1600050D3*
X1680050D3*
X1760050D3*
X1840050D3*
X1920050D3*
X2000050D3*
X2080050D3*
X2160050D3*
X2240050D3*
X2320050D3*
D20*
X2490050Y2677300D3*
Y2757300D3*
Y2837300D3*
Y2917300D3*
Y2997300D3*
Y3077300D3*
Y3157300D3*
Y3237300D3*
Y3317300D3*
Y3397300D3*
Y3477300D3*
D21*
X2320050Y3647300D3*
X2240050D3*
X2160050D3*
X2080050D3*
X2000050D3*
X1920050D3*
X1840050D3*
X1760050D3*
X1680050D3*
X1600050D3*
X1520050D3*
D22*
X1413550Y1223050D3*
X1604050D3*
X1794550D3*
X1985050D3*
X2175550D3*
X2366050D3*
M02*
