M48
METRIC,0000.00
T01C0.486
T02C0.9
%
T01
X+001618Y+003237
X+001509Y+003414
X+001922Y+003414
X+002049Y+003223
X+002191Y+003397
X+002064Y+002922
X+002334Y+002922
X+001795Y+002747
X+001509Y+003001
T02
X+001160Y+004573
X+001160Y+004319
X+001160Y+004065
X+001160Y+003811
X+001160Y+003557
X+001160Y+003303
X+001160Y+003049
X+001160Y+002795
X+001160Y+002541
X+001160Y+002287
X+001160Y+002033
X+001160Y+001779
X+001160Y+001525
X+001160Y+001271
X+001414Y+001223
X+001604Y+001223
X+001795Y+001223
X+001985Y+001223
X+002176Y+001223
X+002366Y+001223
X+002684Y+001271
X+002684Y+001525
X+002684Y+001779
X+002684Y+002033
X+002684Y+002287
X+002684Y+002541
X+002684Y+002795
X+002684Y+003049
X+002684Y+003303
X+002684Y+003557
X+002684Y+003811
X+002684Y+004065
X+002684Y+004319
X+002684Y+004573
T00
M30
