G04 DipTrace 3.0.0.2*
G04 82S100replacement.GTO*
%MOMM*%
G04 #@! TF.FileFunction,Legend,Top*
G04 #@! TF.Part,Single*
%ADD10C,0.25*%
%ADD19C,0.6006*%
%ADD42C,0.19608*%
%ADD43C,0.15686*%
%FSLAX35Y35*%
G04*
G71*
G90*
G75*
G01*
G04 TopSilk*
%LPD*%
X2559511Y4781673D2*
D10*
Y1061673D1*
X1279571D2*
X2559511D1*
X1279571Y4781673D2*
Y1061673D1*
Y4781673D2*
X1839524D1*
X2559511D2*
X1999558D1*
X1839524D2*
G03X1999558Y4781673I80017J37D01*
G01*
X1485110Y3512240D2*
X2354990D1*
Y2642360D1*
X1485110D1*
Y3512240D1*
D19*
X1320044Y3557318D3*
G36*
X1487090Y3508280D2*
X1581998Y3506300D1*
X1487090Y3508280D1*
G37*
G36*
X1500026Y3517256D2*
X1620014D1*
X1480094Y3377336D1*
X1500026Y3517256D1*
G37*
X1844174Y4650160D2*
D42*
Y4559050D1*
X1850210Y4540800D1*
X1862424Y4528727D1*
X1880674Y4522550D1*
X1892747D1*
X1910997Y4528727D1*
X1923210Y4540800D1*
X1929247Y4559050D1*
Y4650160D1*
X1968463Y4625733D2*
X1980676Y4631910D1*
X1998926Y4650020D1*
Y4522550D1*
X1815369Y3923287D2*
Y3832177D1*
X1821406Y3813927D1*
X1833619Y3801854D1*
X1851869Y3795677D1*
X1863942D1*
X1882192Y3801854D1*
X1894406Y3813927D1*
X1900442Y3832177D1*
Y3923287D1*
X1945835Y3892823D2*
Y3898860D1*
X1951871Y3911073D1*
X1957908Y3917110D1*
X1970121Y3923146D1*
X1994408D1*
X2006481Y3917110D1*
X2012517Y3911073D1*
X2018694Y3898860D1*
Y3886787D1*
X2012517Y3874573D1*
X2000444Y3856464D1*
X1939658Y3795677D1*
X2024731D1*
X1384510Y1388636D2*
D43*
X1486598D1*
X1384510Y1354607D2*
Y1422665D1*
X1486598Y1531754D2*
X1384510Y1531755D1*
X1486598Y1492896D1*
X1384510Y1454038D1*
X1486598D1*
X1399110Y1631185D2*
X1389339Y1621527D1*
X1384510Y1606927D1*
Y1587498D1*
X1389339Y1572898D1*
X1399110Y1563127D1*
X1408769D1*
X1418539Y1568069D1*
X1423369Y1572898D1*
X1428198Y1582556D1*
X1437969Y1611756D1*
X1442798Y1621527D1*
X1447739Y1626356D1*
X1457398Y1631185D1*
X1471998D1*
X1481656Y1621527D1*
X1486598Y1606927D1*
Y1587498D1*
X1481656Y1572898D1*
X1471998Y1563127D1*
X1575010Y1388636D2*
X1677098D1*
X1575010Y1354607D2*
Y1422665D1*
Y1454038D2*
X1677098D1*
Y1488067D1*
X1672156Y1502667D1*
X1662498Y1512438D1*
X1652727Y1517267D1*
X1638239Y1522096D1*
X1613869D1*
X1599269Y1517267D1*
X1589610Y1512438D1*
X1579839Y1502667D1*
X1575010Y1488067D1*
Y1454038D1*
Y1553469D2*
X1677098D1*
X1765510Y1388636D2*
X1867598D1*
X1765510Y1354607D2*
Y1422665D1*
Y1454038D2*
X1867598D1*
Y1488067D1*
X1862656Y1502667D1*
X1852998Y1512438D1*
X1843227Y1517267D1*
X1828739Y1522096D1*
X1804369D1*
X1789769Y1517267D1*
X1780110Y1512438D1*
X1770339Y1502667D1*
X1765510Y1488067D1*
Y1454038D1*
Y1582669D2*
X1770339Y1572898D1*
X1780110Y1563239D1*
X1789769Y1558298D1*
X1804369Y1553469D1*
X1828739D1*
X1843227Y1558298D1*
X1852998Y1563239D1*
X1862656Y1572898D1*
X1867598Y1582669D1*
Y1602098D1*
X1862656Y1611756D1*
X1852998Y1621527D1*
X1843227Y1626356D1*
X1828739Y1631185D1*
X1804369D1*
X1789769Y1626356D1*
X1780110Y1621527D1*
X1770339Y1611756D1*
X1765510Y1602098D1*
Y1582669D1*
X1956010Y1388636D2*
X2058098D1*
X1956010Y1354607D2*
Y1422665D1*
X1980269Y1526925D2*
X1970610Y1522096D1*
X1960839Y1512325D1*
X1956010Y1502667D1*
Y1483238D1*
X1960839Y1473467D1*
X1970610Y1463808D1*
X1980269Y1458867D1*
X1994869Y1454038D1*
X2019239D1*
X2033727Y1458867D1*
X2043498Y1463808D1*
X2053156Y1473467D1*
X2058098Y1483238D1*
Y1502667D1*
X2053156Y1512325D1*
X2043498Y1522096D1*
X2033727Y1526925D1*
X1956010Y1558298D2*
X2058098D1*
X1956010Y1626356D2*
X2024069Y1558298D1*
X1999698Y1582556D2*
X2058098Y1626356D1*
X2170769Y1427494D2*
X2161110Y1422665D1*
X2151339Y1412894D1*
X2146510Y1403236D1*
Y1383807D1*
X2151339Y1374036D1*
X2161110Y1364378D1*
X2170769Y1359436D1*
X2185369Y1354607D1*
X2209739D1*
X2224227Y1359436D1*
X2233998Y1364378D1*
X2243656Y1374036D1*
X2248598Y1383807D1*
Y1403236D1*
X2243656Y1412894D1*
X2233998Y1422665D1*
X2224227Y1427494D1*
X2209739D1*
Y1403236D1*
X2146510Y1526925D2*
X2248598D1*
X2146510Y1458867D1*
X2248598D1*
X2146510Y1558298D2*
X2248598D1*
Y1592327D1*
X2243656Y1606927D1*
X2233998Y1616698D1*
X2224227Y1621527D1*
X2209739Y1626356D1*
X2185369D1*
X2170769Y1621527D1*
X2161110Y1616698D1*
X2151339Y1606927D1*
X2146510Y1592327D1*
Y1558298D1*
X2337010Y1354607D2*
X2439098Y1393465D1*
X2337010Y1432324D1*
X2385639Y1463696D2*
Y1507384D1*
X2380698Y1521984D1*
X2375869Y1526925D1*
X2366210Y1531754D1*
X2356439Y1531755D1*
X2346781Y1526925D1*
X2341839Y1521984D1*
X2337010Y1507384D1*
Y1463696D1*
X2439098D1*
X2385639Y1497725D2*
X2439098Y1531754D1*
X2337010Y1626244D2*
Y1563127D1*
X2439098D1*
Y1626244D1*
X2385639Y1563127D2*
Y1601985D1*
X2337010Y1720846D2*
Y1657616D1*
X2439098D1*
X2385639D2*
Y1696475D1*
M02*
